<svg width="146" height="46" viewBox="0 0 146 46" fill="none" xmlns="http://www.w3.org/2000/svg">
<path d="M56.292 23.3948C56.5724 25.018 58.1454 25.6322 59.8741 25.6322C61.5717 25.6322 62.4906 24.9449 62.4906 24.126C62.4906 23.4826 61.9611 22.9854 60.4815 22.7222L56.3699 21.9618C52.6165 21.3183 50.4828 19.4319 50.4828 16.4342C50.4828 12.5444 54.0649 10 59.1888 10C64.2193 10 67.5678 12.1496 68.3777 15.4544L62.4906 16.5512C62.2881 15.3813 61.0733 14.3138 59.111 14.3138C57.3822 14.3138 56.8215 15.1035 56.8215 15.7908C56.8215 16.3172 57.0707 16.8436 58.3478 17.1215L63.098 18.0281C66.9293 18.7885 68.7047 20.9381 68.7047 23.7458C68.7047 27.9426 64.8423 30.1361 59.5159 30.1361C54.7657 30.1361 50.6853 28.5129 50 24.6086L56.292 23.3948ZM93.1097 29.6097H87.5029L83.8741 19.315L80.2141 29.6097H74.6074L68.1285 10.5703H74.4517L77.7534 20.7773L81.5847 10.5703H86.1324L89.9637 20.8211L93.2654 10.5703H99.5886L93.1097 29.6097ZM121.315 29.5658H114.867V28.0596C113.294 29.3903 111.207 30.1361 108.575 30.1361C103.217 30.1361 98.7008 26.0855 98.7008 20.0754C98.7008 14.0945 103.217 10.0146 108.575 10.0146C111.191 10.0146 113.294 10.775 114.867 12.0911V10.5703H121.315V29.5658ZM114.867 20.0754C114.867 17.1654 112.531 15.162 109.914 15.162C107.095 15.162 105.04 17.1654 105.04 20.0754C105.04 23.0292 107.095 24.9888 109.914 24.9888C112.531 24.9888 114.867 23.0292 114.867 20.0754ZM146 20.0754C146 26.0855 141.483 30.1361 136.126 30.1361C133.509 30.1361 131.407 29.3757 129.834 28.0596V36H123.386V10.5703H129.834V12.0765C131.407 10.7458 133.494 10 136.126 10C141.499 10.0146 146 14.0945 146 20.0754ZM139.677 20.0754C139.677 17.1654 137.621 15.162 134.802 15.162C132.186 15.162 129.849 17.1654 129.849 20.0754C129.849 23.0292 132.186 24.9888 134.802 24.9888C137.621 24.9888 139.677 23.0292 139.677 20.0754Z" fill="url(#paint0_linear_2576_6075)"/>
<path d="M41.4806 18.4062C41.349 17.7989 41.2339 17.4563 41.2339 17.4563C36.1356 3.67502 21.5972 3.81517 21.5972 3.81517L22.0083 0L12.0584 8.0975C20.0512 7.55247 33.5206 8.36222 41.4806 18.4062Z" fill="url(#paint1_linear_2576_6075)"/>
<path d="M12.0585 8.0975L11.0059 8.95396L21.5972 17.4408L22.0248 13.7657C33.899 15.1049 36.0041 24.4015 36.0041 24.4015C39.0466 34.5701 29.0145 40.7833 29.0145 40.7833C44.0463 34.7258 42.303 21.9722 41.4807 18.3907C33.5207 8.36222 20.0513 7.55248 12.0585 8.0975Z" fill="url(#paint2_linear_2576_6075)"/>
<path d="M32.534 36.2207C32.534 36.2207 40.0334 27.9519 32.2544 18.7177C32.2544 18.7177 36.9086 27.1422 27.4521 32.3121L32.534 36.2207Z" fill="url(#paint3_linear_2576_6075)"/>
<path d="M29.9415 37.9025L30.9941 37.046L20.4028 28.5592L19.9752 32.2342C8.10103 30.895 5.99592 21.5985 5.99592 21.5985C2.95338 11.4299 12.9855 5.20105 12.9855 5.20105C-2.04625 11.2586 -0.302961 24.0122 0.519346 27.5937C8.47929 37.6377 21.9487 38.4475 29.9415 37.9025Z" fill="url(#paint4_linear_2576_6075)"/>
<path d="M0.519043 27.5938C0.650612 28.2011 0.765735 28.5437 0.765735 28.5437C5.8476 42.325 20.4025 42.1848 20.4025 42.1848L19.9748 46L29.9412 37.9025C21.9484 38.4475 8.47898 37.6378 0.519043 27.5938Z" fill="url(#paint5_linear_2576_6075)"/>
<path d="M9.46612 9.7793C9.46612 9.7793 1.96667 18.0481 9.74571 27.2823C9.74571 27.2823 5.09144 18.8578 14.548 13.6879L9.46612 9.7793Z" fill="url(#paint6_linear_2576_6075)"/>
<defs>
<linearGradient id="paint0_linear_2576_6075" x1="50.0061" y1="23.0032" x2="146.007" y2="23.0032" gradientUnits="userSpaceOnUse">
<stop stop-color="#00A4CF"/>
<stop offset="1" stop-color="#3F439A"/>
</linearGradient>
<linearGradient id="paint1_linear_2576_6075" x1="21.5405" y1="3.61704" x2="34.4992" y2="28.6632" gradientUnits="userSpaceOnUse">
<stop stop-color="#F0CE18"/>
<stop offset="0.7079" stop-color="#E87C28"/>
</linearGradient>
<linearGradient id="paint2_linear_2576_6075" x1="42.0001" y1="24.3853" x2="10.9962" y2="24.3853" gradientUnits="userSpaceOnUse">
<stop stop-color="#F0CE15"/>
<stop offset="1" stop-color="#E87C28"/>
</linearGradient>
<linearGradient id="paint3_linear_2576_6075" x1="35.777" y1="27.4713" x2="27.4545" y2="27.4713" gradientUnits="userSpaceOnUse">
<stop stop-color="#F0CE15"/>
<stop offset="1" stop-color="#E97C2A"/>
</linearGradient>
<linearGradient id="paint4_linear_2576_6075" x1="-0.00693059" y1="21.6155" x2="30.9969" y2="21.6155" gradientUnits="userSpaceOnUse">
<stop stop-color="#403E99"/>
<stop offset="1" stop-color="#00A4CF"/>
</linearGradient>
<linearGradient id="paint5_linear_2576_6075" x1="20.8435" y1="42.0861" x2="6.46994" y2="17.7371" gradientUnits="userSpaceOnUse">
<stop stop-color="#403E99"/>
<stop offset="1" stop-color="#00A4CF"/>
</linearGradient>
<linearGradient id="paint6_linear_2576_6075" x1="6.21618" y1="18.5295" x2="14.5387" y2="18.5295" gradientUnits="userSpaceOnUse">
<stop stop-color="#403E99"/>
<stop offset="1" stop-color="#00A4CF"/>
</linearGradient>
</defs>
</svg>
